<svg width="34" height="34" viewBox="0 0 34 34" fill="none" xmlns="http://www.w3.org/2000/svg">
<circle cx="16.2494" cy="16.2494" r="16.2494" transform="matrix(-1 0 0 1 33.2803 0.849854)" fill="#0070FF"/>
<rect width="24.112" height="24.112" transform="translate(4.97461 5.04321)" fill="#0070FF"/>
<path fill-rule="evenodd" clip-rule="evenodd" d="M13.7647 12.7458L13.9246 12.3574C14.2332 11.608 14.9635 11.1189 15.774 11.1189H18.3852C19.1957 11.1189 19.926 11.608 20.2346 12.3574L20.3945 12.7458H20.9746C22.6315 12.7458 23.9746 14.089 23.9746 15.7458V19.0424C23.9746 20.6992 22.6315 22.0424 20.9746 22.0424H12.9746C11.3178 22.0424 9.97461 20.6992 9.97461 19.0424L9.97461 15.7458C9.97461 14.089 11.3178 12.7458 12.9746 12.7458H13.7647Z" fill="#C2CCDE" fill-opacity="0.25"/>
<path d="M13.7647 12.7458V13.2458H14.0995L14.227 12.9362L13.7647 12.7458ZM13.9246 12.3574L14.3869 12.5478L13.9246 12.3574ZM20.2346 12.3574L20.6969 12.1671V12.1671L20.2346 12.3574ZM20.3945 12.7458L19.9321 12.9362L20.0596 13.2458H20.3945V12.7458ZM14.227 12.9362L14.3869 12.5478L13.4623 12.1671L13.3024 12.5554L14.227 12.9362ZM14.3869 12.5478C14.6184 11.9857 15.1661 11.6189 15.774 11.6189V10.6189C14.7609 10.6189 13.848 11.2303 13.4623 12.1671L14.3869 12.5478ZM15.774 11.6189L18.3852 11.6189V10.6189H15.774V11.6189ZM18.3852 11.6189C18.9931 11.6189 19.5408 11.9857 19.7722 12.5478L20.6969 12.1671C20.3112 11.2303 19.3983 10.6189 18.3852 10.6189V11.6189ZM19.7722 12.5478L19.9321 12.9362L20.8568 12.5554L20.6969 12.1671L19.7722 12.5478ZM20.3945 13.2458H20.9746V12.2458H20.3945V13.2458ZM20.9746 13.2458C22.3553 13.2458 23.4746 14.3651 23.4746 15.7458L24.4746 15.7458C24.4746 13.8128 22.9076 12.2458 20.9746 12.2458V13.2458ZM23.4746 15.7458V19.0424L24.4746 19.0424V15.7458L23.4746 15.7458ZM23.4746 19.0424C23.4746 20.4231 22.3553 21.5424 20.9746 21.5424V22.5424C22.9076 22.5424 24.4746 20.9754 24.4746 19.0424L23.4746 19.0424ZM20.9746 21.5424H12.9746V22.5424H20.9746V21.5424ZM12.9746 21.5424C11.5939 21.5424 10.4746 20.4231 10.4746 19.0424H9.47461C9.47461 20.9754 11.0416 22.5424 12.9746 22.5424V21.5424ZM10.4746 19.0424L10.4746 15.7458H9.47461L9.47461 19.0424H10.4746ZM10.4746 15.7458C10.4746 14.3651 11.5939 13.2458 12.9746 13.2458V12.2458C11.0416 12.2458 9.47461 13.8128 9.47461 15.7458H10.4746ZM12.9746 13.2458H13.7647V12.2458H12.9746V13.2458Z" fill="white"/>
<path d="M15.5411 14.6774C16.4364 14.1968 17.5128 14.1968 18.4081 14.6774L18.5722 14.7655C19.4549 15.2392 20.0057 16.1599 20.0057 17.1618V17.1618C20.0057 18.1636 19.4549 19.0843 18.5722 19.5581L18.4081 19.6462C17.5128 20.1267 16.4364 20.1267 15.5411 19.6462L15.377 19.5581C14.4943 19.0843 13.9435 18.1636 13.9435 17.1618V17.1618C13.9435 16.1599 14.4943 15.2392 15.377 14.7655L15.5411 14.6774Z" stroke="white" stroke-linecap="round" stroke-linejoin="round"/>
</svg>
