<svg width="14" height="14" viewBox="0 0 14 14" fill="none" xmlns="http://www.w3.org/2000/svg">
<path d="M7.87508 1.75H7.00008H5.91675C4.25989 1.75 2.91675 3.09315 2.91675 4.75V9.33333C2.91675 10.9442 4.22258 12.25 5.83341 12.25V12.25M7.87508 1.75L11.0834 5.03125M7.87508 1.75V4.03125C7.87508 4.58353 8.3228 5.03125 8.87508 5.03125H11.0834M11.0834 5.03125V6.89062" stroke="#3E4958" stroke-linecap="round" stroke-linejoin="round"/>
<rect x="7.58325" y="9.9165" width="4.08333" height="2.33333" rx="1" stroke="#3E4958" stroke-linecap="round" stroke-linejoin="round"/>
<path d="M8.75 9.0415C8.75 8.55825 9.14175 8.1665 9.625 8.1665V8.1665C10.1082 8.1665 10.5 8.55825 10.5 9.0415V9.9165H8.75V9.0415Z" stroke="#3E4958" stroke-linecap="round" stroke-linejoin="round"/>
</svg>
