<svg width="28" height="21" viewBox="0 0 28 21" fill="none" xmlns="http://www.w3.org/2000/svg">
<g clip-path="url(#clip0_44_2834)">
<path d="M0 0H28V7H0V0Z" fill="#FF9933"/>
<path d="M0 7H28V14H0V7Z" fill="white"/>
<path d="M0 14H28V21H0V14Z" fill="#128807"/>
<path d="M14.0002 13.3002C15.5466 13.3002 16.8002 12.0466 16.8002 10.5002C16.8002 8.9538 15.5466 7.7002 14.0002 7.7002C12.4538 7.7002 11.2002 8.9538 11.2002 10.5002C11.2002 12.0466 12.4538 13.3002 14.0002 13.3002Z" fill="#000088"/>
<path d="M14 12.9503C15.3531 12.9503 16.45 11.8534 16.45 10.5003C16.45 9.1472 15.3531 8.05029 14 8.05029C12.647 8.05029 11.55 9.1472 11.55 10.5003C11.55 11.8534 12.647 12.9503 14 12.9503Z" fill="white"/>
<path d="M14 10.9903C14.2706 10.9903 14.49 10.7709 14.49 10.5003C14.49 10.2296 14.2706 10.0103 14 10.0103C13.7294 10.0103 13.51 10.2296 13.51 10.5003C13.51 10.7709 13.7294 10.9903 14 10.9903Z" fill="#000088"/>
<path d="M16.4128 10.9455C16.4818 10.9546 16.5451 10.906 16.5542 10.837C16.5633 10.768 16.5147 10.7047 16.4457 10.6956C16.3767 10.6866 16.3134 10.7351 16.3044 10.8041C16.2953 10.8731 16.3438 10.9364 16.4128 10.9455Z" fill="#000088"/>
<path d="M14.0003 12.9498L14.0843 11.4798L14.0003 10.7798L13.9163 11.4798L14.0003 12.9498Z" fill="#000088"/>
<path d="M16.215 11.555C16.2793 11.5816 16.353 11.5511 16.3797 11.4868C16.4063 11.4225 16.3758 11.3488 16.3115 11.3221C16.2472 11.2955 16.1735 11.326 16.1468 11.3903C16.1202 11.4546 16.1507 11.5283 16.215 11.555Z" fill="#000088"/>
<path d="M13.3659 12.8663L13.8275 11.4682L13.9276 10.7703L13.6653 11.4247L13.3659 12.8663Z" fill="#000088"/>
<path d="M15.8675 12.0921C15.9227 12.1344 16.0018 12.124 16.0441 12.0688C16.0865 12.0136 16.0761 11.9345 16.0209 11.8921C15.9657 11.8498 15.8866 11.8602 15.8442 11.9154C15.8018 11.9706 15.8122 12.0497 15.8675 12.0921Z" fill="#000088"/>
<path d="M12.7761 12.622L13.5838 11.3909L13.8611 10.7427L13.4383 11.3069L12.7761 12.622Z" fill="#000088"/>
<path d="M15.3919 12.5209C15.4343 12.5762 15.5134 12.5866 15.5686 12.5442C15.6238 12.5018 15.6342 12.4227 15.5918 12.3675C15.5495 12.3123 15.4704 12.3019 15.4152 12.3443C15.36 12.3866 15.3496 12.4657 15.3919 12.5209Z" fill="#000088"/>
<path d="M12.2686 12.2325L13.3675 11.2524L13.803 10.6981L13.2487 11.1336L12.2686 12.2325Z" fill="#000088"/>
<path d="M14.8205 12.8125C14.8472 12.8767 14.9209 12.9073 14.9852 12.8806C15.0494 12.854 15.08 12.7803 15.0533 12.716C15.0267 12.6517 14.953 12.6212 14.8887 12.6478C14.8244 12.6745 14.7939 12.7482 14.8205 12.8125Z" fill="#000088"/>
<path d="M11.8785 11.7251L13.1936 11.0629L13.7578 10.6401L13.1096 10.9174L11.8785 11.7251Z" fill="#000088"/>
<path d="M14.1943 12.9459C14.2034 13.0149 14.2667 13.0635 14.3357 13.0544C14.4047 13.0453 14.4533 12.982 14.4442 12.913C14.4351 12.844 14.3718 12.7954 14.3028 12.8045C14.2338 12.8136 14.1853 12.8769 14.1943 12.9459Z" fill="#000088"/>
<path d="M11.6339 11.134L13.0756 10.8347L13.73 10.5724L13.0321 10.6724L11.6339 11.134Z" fill="#000088"/>
<path d="M13.5545 12.9128C13.5454 12.9818 13.594 13.0451 13.663 13.0542C13.732 13.0633 13.7953 13.0147 13.8044 12.9457C13.8134 12.8767 13.7649 12.8134 13.6959 12.8044C13.6269 12.7953 13.5636 12.8438 13.5545 12.9128Z" fill="#000088"/>
<path d="M11.5502 10.4999L13.0202 10.5839L13.7202 10.5L13.0202 10.416L11.5502 10.4999Z" fill="#000088"/>
<path d="M12.9453 12.7153C12.9187 12.7796 12.9492 12.8533 13.0135 12.8799C13.0778 12.9065 13.1515 12.876 13.1781 12.8117C13.2047 12.7474 13.1742 12.6737 13.1099 12.6471C13.0456 12.6205 12.9719 12.651 12.9453 12.7153Z" fill="#000088"/>
<path d="M11.6337 9.8662L13.0318 10.3278L13.7297 10.4278L13.0753 10.1655L11.6337 9.8662Z" fill="#000088"/>
<path d="M12.4079 12.367C12.3656 12.4222 12.376 12.5013 12.4312 12.5436C12.4864 12.586 12.5655 12.5756 12.6079 12.5204C12.6502 12.4652 12.6398 12.3861 12.5846 12.3437C12.5294 12.3013 12.4503 12.3118 12.4079 12.367Z" fill="#000088"/>
<path d="M11.8783 9.27534L13.1093 10.0831L13.7576 10.3603L13.1933 9.9376L11.8783 9.27534Z" fill="#000088"/>
<path d="M11.9791 11.8909C11.9238 11.9333 11.9134 12.0124 11.9558 12.0676C11.9982 12.1228 12.0773 12.1332 12.1325 12.0909C12.1877 12.0485 12.1981 11.9694 12.1557 11.9142C12.1134 11.859 12.0343 11.8486 11.9791 11.8909Z" fill="#000088"/>
<path d="M12.2675 8.76765L13.2476 9.86649L13.8019 10.3021L13.3664 9.7477L12.2675 8.76765Z" fill="#000088"/>
<path d="M11.688 11.3203C11.6237 11.3469 11.5932 11.4206 11.6198 11.4849C11.6465 11.5492 11.7202 11.5797 11.7845 11.5531C11.8488 11.5265 11.8793 11.4528 11.8527 11.3885C11.826 11.3242 11.7523 11.2937 11.688 11.3203Z" fill="#000088"/>
<path d="M12.7751 8.37805L13.4374 9.69311L13.8601 10.2573L13.5829 9.60911L12.7751 8.37805Z" fill="#000088"/>
<path d="M11.5543 10.6938C11.4854 10.7029 11.4368 10.7662 11.4459 10.8352C11.4549 10.9042 11.5182 10.9528 11.5872 10.9437C11.6562 10.9346 11.7048 10.8713 11.6957 10.8023C11.6866 10.7333 11.6233 10.6848 11.5543 10.6938Z" fill="#000088"/>
<path d="M13.3658 8.13369L13.6651 9.57534L13.9274 10.2297L13.8274 9.53186L13.3658 8.13369Z" fill="#000088"/>
<path d="M11.5874 10.0545C11.5184 10.0454 11.4551 10.094 11.446 10.163C11.437 10.232 11.4855 10.2953 11.5545 10.3044C11.6235 10.3134 11.6868 10.2649 11.6959 10.1959C11.705 10.1269 11.6564 10.0636 11.5874 10.0545Z" fill="#000088"/>
<path d="M14 8.05022L13.916 9.52021L13.9998 10.2202L14.0838 9.52022L14 8.05022Z" fill="#000088"/>
<path d="M11.7852 9.44504C11.7209 9.41841 11.6472 9.44894 11.6206 9.51323C11.5939 9.57752 11.6245 9.65122 11.6888 9.67786C11.7531 9.70449 11.8268 9.67396 11.8534 9.60967C11.88 9.54538 11.8495 9.47167 11.7852 9.44504Z" fill="#000088"/>
<path d="M14.6343 8.13367L14.1727 9.53184L14.0727 10.2297L14.335 9.57532L14.6343 8.13367Z" fill="#000088"/>
<path d="M12.1338 8.90794C12.0786 8.86558 11.9995 8.87599 11.9571 8.9312C11.9147 8.98641 11.9252 9.0655 11.9804 9.10787C12.0356 9.15023 12.1147 9.13982 12.157 9.08461C12.1994 9.0294 12.189 8.95031 12.1338 8.90794Z" fill="#000088"/>
<path d="M15.2251 8.37804L14.4174 9.6091L14.1401 10.2573L14.5629 9.6931L15.2251 8.37804Z" fill="#000088"/>
<path d="M12.6093 8.47905C12.5669 8.42384 12.4879 8.41343 12.4326 8.45579C12.3774 8.49815 12.367 8.57725 12.4094 8.63246C12.4517 8.68767 12.5308 8.69808 12.586 8.65572C12.6413 8.61336 12.6517 8.53426 12.6093 8.47905Z" fill="#000088"/>
<path d="M15.7326 8.76751L14.6338 9.74756L14.1982 10.3019L14.7525 9.86635L15.7326 8.76751Z" fill="#000088"/>
<path d="M13.1797 8.18755C13.1531 8.12325 13.0794 8.09272 13.0151 8.11936C12.9508 8.14599 12.9203 8.21969 12.9469 8.28398C12.9735 8.34827 13.0472 8.3788 13.1115 8.35217C13.1758 8.32554 13.2063 8.25184 13.1797 8.18755Z" fill="#000088"/>
<path d="M16.1217 9.27487L14.8066 9.93713L14.2424 10.3599L14.8906 10.0826L16.1217 9.27487Z" fill="#000088"/>
<path d="M13.8059 8.0541C13.7968 7.98511 13.7335 7.93654 13.6645 7.94562C13.5955 7.95471 13.547 8.018 13.5561 8.08699C13.5651 8.15598 13.6284 8.20455 13.6974 8.19547C13.7664 8.18639 13.815 8.12309 13.8059 8.0541Z" fill="#000088"/>
<path d="M16.3663 9.86602L14.9247 10.1653L14.2703 10.4276L14.9681 10.3276L16.3663 9.86602Z" fill="#000088"/>
<path d="M14.4457 8.08716C14.4548 8.01817 14.4062 7.95487 14.3373 7.94579C14.2683 7.93671 14.205 7.98528 14.1959 8.05427C14.1868 8.12327 14.2354 8.18656 14.3044 8.19564C14.3734 8.20472 14.4367 8.15615 14.4457 8.08716Z" fill="#000088"/>
<path d="M16.45 10.5002L14.98 10.4162L14.28 10.5001L14.98 10.584L16.45 10.5002Z" fill="#000088"/>
<path d="M15.055 8.28471C15.0816 8.22042 15.0511 8.14671 14.9868 8.12008C14.9225 8.09345 14.8488 8.12398 14.8221 8.18828C14.7955 8.25257 14.826 8.32627 14.8903 8.3529C14.9546 8.37953 15.0283 8.349 15.055 8.28471Z" fill="#000088"/>
<path d="M16.3666 11.1338L14.9684 10.6722L14.2705 10.5722L14.9249 10.8345L16.3666 11.1338Z" fill="#000088"/>
<path d="M15.5923 8.63303C15.6347 8.57782 15.6243 8.49873 15.569 8.45637C15.5138 8.414 15.4347 8.42442 15.3924 8.47963C15.35 8.53483 15.3604 8.61393 15.4156 8.65629C15.4708 8.69865 15.5499 8.68824 15.5923 8.63303Z" fill="#000088"/>
<path d="M16.122 11.7247L14.8909 10.9169L14.2427 10.6397L14.8069 11.0624L16.122 11.7247Z" fill="#000088"/>
<path d="M16.0212 9.10906C16.0764 9.0667 16.0868 8.9876 16.0445 8.93239C16.0021 8.87719 15.923 8.86677 15.8678 8.90914C15.8126 8.9515 15.8022 9.03059 15.8445 9.0858C15.8869 9.14101 15.966 9.15142 16.0212 9.10906Z" fill="#000088"/>
<path d="M15.7327 12.2323L14.7527 11.1335L14.1983 10.6979L14.6339 11.2523L15.7327 12.2323Z" fill="#000088"/>
<path d="M16.312 9.67971C16.3763 9.65308 16.4068 9.57938 16.3802 9.51509C16.3535 9.4508 16.2798 9.42027 16.2155 9.4469C16.1512 9.47353 16.1207 9.54723 16.1473 9.61153C16.174 9.67582 16.2477 9.70635 16.312 9.67971Z" fill="#000088"/>
<path d="M15.2249 12.6219L14.5626 11.3069L14.1399 10.7427L14.4171 11.3909L15.2249 12.6219Z" fill="#000088"/>
<path d="M16.4457 10.3057C16.5146 10.2966 16.5632 10.2333 16.5541 10.1643C16.545 10.0953 16.4818 10.0467 16.4128 10.0558C16.3438 10.0649 16.2952 10.1282 16.3043 10.1972C16.3134 10.2662 16.3767 10.3147 16.4457 10.3057Z" fill="#000088"/>
<path d="M14.6342 12.8663L14.3349 11.4247L14.0726 10.7703L14.1726 11.4681L14.6342 12.8663Z" fill="#000088"/>
</g>
<defs>
<clipPath id="clip0_44_2834">
<rect width="28" height="21" fill="white"/>
</clipPath>
</defs>
</svg>
