<svg width="48" height="48" viewBox="0 0 48 48" fill="none" xmlns="http://www.w3.org/2000/svg">
<rect x="0.5" y="0.5" width="47" height="47" rx="7.5" stroke="#D0D0D0"/>
<path d="M28.5384 18.3921L24.0481 21.8964L19.4551 18.3921V18.393L19.4606 18.3978V23.3048L23.9963 26.8848L28.5384 23.443V18.3921Z" fill="#F44336"/>
<path d="M29.7176 17.5398L28.5383 18.3922V23.4431L32.249 20.5942V18.8781C32.249 18.8781 31.7986 16.4269 29.7176 17.5398Z" fill="#FDD835"/>
<path d="M28.5383 23.4432V29.9943H31.3824C31.3824 29.9943 32.1916 29.911 32.2499 28.9885V20.5942L28.5383 23.4432Z" fill="#43A048"/>
<path d="M19.4608 30.0002V23.305L19.4551 23.3003L19.4608 30.0002Z" fill="#F44336"/>
<path d="M19.4551 18.3934L18.2823 17.5457C16.2013 16.4329 15.75 18.8831 15.75 18.8831V20.5992L19.4551 23.3004V18.3934Z" fill="#B71B1C"/>
<path d="M19.4551 18.3931V23.3001L19.4608 23.3048V18.3978L19.4551 18.3931Z" fill="#F44336"/>
<path d="M15.75 20.6001V28.9944C15.8073 29.9178 16.6175 30.0002 16.6175 30.0002H19.4616L19.4551 23.3003L15.75 20.6001Z" fill="#304FFE"/>
</svg>
