<svg width="12" height="12" viewBox="0 0 12 12" fill="none" xmlns="http://www.w3.org/2000/svg">
<path d="M2.5 4.83333H2.9375C3.34021 4.83333 3.66667 5.15979 3.66667 5.5625V7.60417C3.66667 8.00687 3.34021 8.33333 2.9375 8.33333H2.5C1.5335 8.33333 0.75 7.54983 0.75 6.58333C0.75 5.61684 1.5335 4.83333 2.5 4.83333ZM2.5 4.83333V4.25C2.5 2.317 4.067 0.75 6 0.75C7.933 0.75 9.5 2.317 9.5 4.25V4.83333M9.5 4.83333H9.0625C8.65979 4.83333 8.33333 5.15979 8.33333 5.5625V7.60417C8.33333 8.00687 8.65979 8.33333 9.0625 8.33333H9.5M9.5 4.83333C10.4665 4.83333 11.25 5.61684 11.25 6.58333C11.25 7.54983 10.4665 8.33333 9.5 8.33333M9.5 8.33333L9.13759 9.78296C9.00775 10.3023 8.54111 10.6667 8.00576 10.6667H6.58333" stroke="#3E4958" stroke-linecap="round" stroke-linejoin="round"/>
</svg>
