<svg width="14" height="14" viewBox="0 0 14 14" fill="none" xmlns="http://www.w3.org/2000/svg">
<path d="M5.83333 5.25C5.83333 5.01926 5.90176 4.79369 6.02995 4.60184C6.15815 4.40998 6.34036 4.26044 6.55354 4.17214C6.76672 4.08384 7.00129 4.06073 7.22761 4.10575C7.45392 4.15077 7.6618 4.26188 7.82496 4.42504C7.98812 4.5882 8.09923 4.79608 8.14425 5.0224C8.18927 5.24871 8.16616 5.48328 8.07786 5.69646C7.98956 5.90965 7.84002 6.09185 7.64816 6.22005C7.45631 6.34824 7.23074 6.41667 7 6.41667V7M8.3125 11.0833L7.46667 12.2111C7.23333 12.5222 6.76667 12.5222 6.53333 12.2111L5.6875 11.0833H4.08333C2.79467 11.0833 1.75 10.0387 1.75 8.75V4.08333C1.75 2.79467 2.79467 1.75 4.08333 1.75H9.91667C11.2053 1.75 12.25 2.79467 12.25 4.08333V8.75C12.25 10.0387 11.2053 11.0833 9.91667 11.0833H8.3125Z" stroke="#3E4958" stroke-linecap="round" stroke-linejoin="round"/>
<circle cx="7.00008" cy="8.74984" r="0.583333" fill="#3E4958"/>
</svg>
