<svg width="24" height="32" viewBox="0 0 24 32" fill="none" xmlns="http://www.w3.org/2000/svg">
<path fill-rule="evenodd" clip-rule="evenodd" d="M12 1.88379C17.5228 1.88379 22 6.36094 22 11.8838V12.4861C22 14.6959 21.3095 16.8504 20.0251 18.6486L12.0198 29.8561C12.0101 29.8697 11.9899 29.8697 11.9802 29.8561L3.97486 18.6486C2.69046 16.8504 2 14.6959 2 12.4861L2 11.8838C2 6.36094 6.47715 1.88379 12 1.88379ZM16.3919 10.941C16.0868 9.60442 15.1897 8.4795 13.9546 7.88468C12.7194 7.28985 11.2806 7.28985 10.0454 7.88468C8.81025 8.4795 7.91316 9.60442 7.6081 10.941C7.30304 12.2775 7.62321 13.6803 8.47797 14.7521C9.33273 15.824 10.6291 16.4482 12 16.4482C13.3709 16.4482 14.6673 15.824 15.522 14.7521C16.3768 13.6803 16.697 12.2775 16.3919 10.941Z" fill="#0070FF"/>
<path d="M20.0251 18.6486L21.2457 19.5204L20.0251 18.6486ZM12.0198 29.8561L13.2403 30.728L13.2404 30.728L12.0198 29.8561ZM11.9802 29.8561L10.7596 30.728L10.7597 30.728L11.9802 29.8561ZM3.97486 18.6486L2.75426 19.5204H2.75426L3.97486 18.6486ZM13.9546 7.88468L14.6054 6.53323V6.53322L13.9546 7.88468ZM16.3919 10.941L14.9295 11.2748L16.3919 10.941ZM10.0454 7.88468L9.39459 6.53322L9.39459 6.53323L10.0454 7.88468ZM7.6081 10.941L9.07049 11.2748V11.2748L7.6081 10.941ZM15.522 14.7521L16.6948 15.6874L16.6948 15.6874L15.522 14.7521ZM23.5 11.8838C23.5 5.53252 18.3513 0.383789 12 0.383789V3.38379C16.6944 3.38379 20.5 7.18937 20.5 11.8838H23.5ZM23.5 12.4861V11.8838H20.5V12.4861H23.5ZM21.2457 19.5204C22.7119 17.4679 23.5 15.0085 23.5 12.4861H20.5C20.5 14.3832 19.9072 16.233 18.8045 17.7767L21.2457 19.5204ZM13.2404 30.728L21.2457 19.5204L18.8045 17.7767L10.7992 28.9843L13.2404 30.728ZM10.7597 30.728C11.3676 31.5791 12.6324 31.5791 13.2403 30.728L10.7992 28.9842C11.3877 28.1603 12.6123 28.1603 13.2008 28.9842L10.7597 30.728ZM2.75426 19.5204L10.7596 30.728L13.2008 28.9843L5.19546 17.7767L2.75426 19.5204ZM0.5 12.4861C0.5 15.0085 1.28814 17.4679 2.75426 19.5204L5.19546 17.7767C4.09277 16.233 3.5 14.3832 3.5 12.4861H0.5ZM0.5 11.8838L0.5 12.4861H3.5V11.8838H0.5ZM12 0.383789C5.64872 0.383789 0.5 5.53251 0.5 11.8838H3.5C3.5 7.18937 7.30558 3.38379 12 3.38379V0.383789ZM13.3038 9.23613C14.1276 9.6329 14.726 10.3832 14.9295 11.2748L17.8543 10.6072C17.4476 8.82559 16.2519 7.32611 14.6054 6.53323L13.3038 9.23613ZM10.6962 9.23613C11.5201 8.83937 12.4799 8.83937 13.3038 9.23613L14.6054 6.53322C12.959 5.74034 11.041 5.74034 9.39459 6.53322L10.6962 9.23613ZM9.07049 11.2748C9.27398 10.3832 9.87236 9.6329 10.6962 9.23613L9.39459 6.53323C7.74814 7.32611 6.55235 8.82559 6.14571 10.6072L9.07049 11.2748ZM9.65072 13.8169C9.08057 13.1019 8.86701 12.1663 9.07049 11.2748L6.14571 10.6072C5.73907 12.3888 6.16584 14.2586 7.30522 15.6874L9.65072 13.8169ZM12 14.9482C11.0856 14.9482 10.2209 14.5318 9.65072 13.8169L7.30522 15.6874C8.4446 17.1161 10.1726 17.9482 12 17.9482V14.9482ZM14.3493 13.8169C13.7791 14.5318 12.9144 14.9482 12 14.9482V17.9482C13.8274 17.9482 15.5554 17.1161 16.6948 15.6874L14.3493 13.8169ZM14.9295 11.2748C15.133 12.1663 14.9194 13.1019 14.3493 13.8169L16.6948 15.6874C17.8342 14.2586 18.2609 12.3888 17.8543 10.6072L14.9295 11.2748Z" fill="#0070FF"/>
</svg>
