<svg width="16" height="14" viewBox="0 0 16 14" fill="none" xmlns="http://www.w3.org/2000/svg">
<path d="M2.66667 12.25V13.125C2.66667 13.3729 2.58163 13.5806 2.41156 13.748C2.24089 13.916 2.02963 14 1.77778 14H0.888889C0.637037 14 0.426074 13.916 0.256 13.748C0.0853334 13.5806 0 13.3729 0 13.125V6.125L1.86667 0.875C1.95556 0.6125 2.11496 0.401042 2.34489 0.240625C2.57422 0.0802084 2.82963 0 3.11111 0H12.8889C13.1704 0 13.4261 0.0802084 13.656 0.240625C13.8853 0.401042 14.0444 0.6125 14.1333 0.875L16 6.125V13.125C16 13.3729 15.9147 13.5806 15.744 13.748C15.5739 13.916 15.363 14 15.1111 14H14.2222C13.9704 14 13.7594 13.916 13.5893 13.748C13.4187 13.5806 13.3333 13.3729 13.3333 13.125V12.25H2.66667ZM2.48889 4.375H13.5111L12.5778 1.75H3.42222L2.48889 4.375ZM4 9.625C4.37037 9.625 4.68504 9.49725 4.944 9.24175C5.20356 8.98683 5.33333 8.67708 5.33333 8.3125C5.33333 7.94792 5.20356 7.63817 4.944 7.38325C4.68504 7.12775 4.37037 7 4 7C3.62963 7 3.31496 7.12775 3.056 7.38325C2.79644 7.63817 2.66667 7.94792 2.66667 8.3125C2.66667 8.67708 2.79644 8.98683 3.056 9.24175C3.31496 9.49725 3.62963 9.625 4 9.625ZM12 9.625C12.3704 9.625 12.685 9.49725 12.944 9.24175C13.2036 8.98683 13.3333 8.67708 13.3333 8.3125C13.3333 7.94792 13.2036 7.63817 12.944 7.38325C12.685 7.12775 12.3704 7 12 7C11.6296 7 11.315 7.12775 11.056 7.38325C10.7964 7.63817 10.6667 7.94792 10.6667 8.3125C10.6667 8.67708 10.7964 8.98683 11.056 9.24175C11.315 9.49725 11.6296 9.625 12 9.625ZM1.77778 10.5H14.2222V6.125H1.77778V10.5Z" fill="#3E4958"/>
</svg>
